
<svg width="592px" height="592px" viewBox="410 307 592 592" version="1.1" xmlns="http://www.w3.org/2000/svg" xmlns:xlink="http://www.w3.org/1999/xlink">
    <!-- Generator: Sketch 40.1 (33804) - http://www.bohemiancoding.com/sketch -->
    <desc>Created with Sketch.</desc>
    <defs>
        <circle id="path-1" cx="296" cy="296" r="296"></circle>
    </defs>
    <g id="MainIcon" stroke="none" stroke-width="1" fill="none" fill-rule="evenodd" transform="translate(410.000000, 307.000000)">
        <mask id="mask-2" fill="white">
            <use xlink:href="#path-1"></use>
        </mask>
        <use id="Mask" fill="#000000" xlink:href="#path-1"></use>
        <path d="M153.400452,270.52 L118.562745,295.42 L108.609114,298.74 L92.0197295,295.42 L83.7250372,282.14 L83.7250372,272.18 C83.7250372,272.18 78.7482219,275.5 85.3839757,267.2 C92.0197295,258.9 103.632299,248.94 103.632299,248.94 L120.221683,242.3 L141.787883,232.34 L214.781175,179.22 C214.781175,179.22 214.781175,160.96 208.145421,160.96 L184.920283,160.96 L163.354083,169.26 L176.625591,154.32 L184.920283,149.34 L208.145421,139.38 L252.936759,141.04 L274.502959,126.1 L340.860497,87.92 L392.287589,68 L320.953236,149.34 L390.628651,141.04 L569.794004,132.74 C569.794004,132.74 544.909927,147.68 523.343727,152.66 C501.777527,157.64 450.350435,167.6 450.350435,167.6 L549.886742,170.92 L478.552389,189.18 L548.227804,287.12 L503.436466,252.26 L456.986189,225.7 L470.257697,243.96 L486.847081,268.86 L496.800712,288.78 L505.095404,328.62 L503.436466,368.46 L470.257697,421.58 L468.598758,375.1 L448.691497,315.34 L420.489543,350.2 L380.67502,380.08 L350.814128,393.36 L294.410221,409.96 L239.665252,413.28 L264.549328,395.02 L219.75799,404.98 L193.214975,411.62 L173.307714,434.86 L173.307714,464.74 L181.602406,478.02 L188.23816,483 L194.873913,486.32 L163.354083,478.02 L141.787883,458.1 L136.811068,454.78 L141.787883,479.68 L165.013021,499.6 L189.897098,511.22 L236.347375,509.56 L254.595698,509.56 L189.897098,526.16 L189.897098,532.8 L196.532852,539.44 L289.433405,532.8 C289.433405,532.8 319.294297,529.48 304.363851,506.24 C289.433405,483 274.502959,473.04 274.502959,473.04 L339.201559,501.26 L369.062451,496.28 L317.635359,456.44 C317.635359,456.44 423.80742,476.36 432.102112,484.66 C440.396804,492.96 528.320542,595.88 528.320542,595.88 C528.320542,595.88 476.89345,534.46 397.264405,547.74 C317.635359,561.02 299.387036,575.96 299.387036,575.96 L282.797651,582.6 L242.983129,614.14 L257.913575,649 C257.913575,649 152.862095,589.040206 121.880622,567.66 C90.8991484,546.279794 65.4767142,516.2 65.4767142,516.2 C65.4767142,516.2 32.2979452,474.7 32.2979452,458.1 C32.2979452,441.5 32.2979452,414.94 55.5230835,395.02 C78.7482219,375.1 108.609114,353.52 108.609114,353.52 L183.261344,333.6 L143.446821,305.38 L296.069159,307.04 L325.930051,288.78 L344.178374,262.22 L349.15519,229.02 L335.883682,214.08 L314.317482,214.08 L324.271113,263.88 L282.797651,237.32 L261.231452,267.2" id="Path" fill="#FFFFFF" mask="url(#mask-2)"></path>
    </g>
</svg>
