
<svg width="383px" height="115px" viewBox="656 396 383 115" version="1.1" xmlns="http://www.w3.org/2000/svg" xmlns:xlink="http://www.w3.org/1999/xlink">
    <!-- Generator: Sketch 40.1 (33804) - http://www.bohemiancoding.com/sketch -->
    <desc>Created with Sketch.</desc>
    <defs></defs>
    <g id="Art_Logo" stroke="none" stroke-width="1" fill="none" fill-rule="evenodd" transform="translate(657.000000, 396.000000)">
        <g id="Group" transform="translate(0.000000, 9.000000)">
            <path d="M22.0802469,36.9485714 L15.7283951,41.4914286 L13.9135802,42.0971429 L10.8888889,41.4914286 L9.37654321,39.0685714 L9.37654321,37.2514286 C9.37654321,37.2514286 8.4691358,37.8571429 9.67901235,36.3428571 C10.8888889,34.8285714 13.0061728,33.0114286 13.0061728,33.0114286 L16.0308642,31.8 L19.962963,29.9828571 L33.2716049,20.2914286 C33.2716049,20.2914286 33.2716049,16.96 32.0617284,16.96 L27.8271605,16.96 L23.8950617,18.4742857 L26.3148148,15.7485714 L27.8271605,14.84 L32.0617284,13.0228571 L40.2283951,13.3257143 L44.1604938,10.6 L56.2592593,3.63428571 L65.6358025,0 L52.6296296,14.84 L65.3333333,13.3257143 L98,11.8114286 C98,11.8114286 93.462963,14.5371429 89.5308642,15.4457143 C85.5987654,16.3542857 76.2222222,18.1714286 76.2222222,18.1714286 L94.3703704,18.7771429 L81.3641975,22.1085714 L94.0679012,39.9771429 L85.9012346,33.6171429 L77.4320988,28.7714286 L79.8518519,32.1028571 L82.8765432,36.6457143 L84.691358,40.28 L86.2037037,47.5485714 L85.9012346,54.8171429 L79.8518519,64.5085714 L79.5493827,56.0285714 L75.9197531,45.1257143 L70.7777778,51.4857143 L63.5185185,56.9371429 L58.0740741,59.36 L47.7901235,62.3885714 L37.808642,62.9942857 L42.345679,59.6628571 L34.1790123,61.48 L29.3395062,62.6914286 L25.7098765,66.9314286 L25.7098765,72.3828571 L27.2222222,74.8057143 L28.4320988,75.7142857 L29.6419753,76.32 L23.8950617,74.8057143 L19.962963,71.1714286 L19.0555556,70.5657143 L19.962963,75.1085714 L24.1975309,78.7428571 L28.7345679,80.8628571 L37.2037037,80.56 L40.5308642,80.56 L28.7345679,83.5885714 L28.7345679,84.8 L29.9444444,86.0114286 L46.882716,84.8 C46.882716,84.8 52.3271605,84.1942857 49.6049383,79.9542857 C46.882716,75.7142857 44.1604938,73.8971429 44.1604938,73.8971429 L55.9567901,79.0457143 L61.4012346,78.1371429 L52.0246914,70.8685714 C52.0246914,70.8685714 71.382716,74.5028571 72.8950617,76.0171429 C74.4074074,77.5314286 90.4382716,96.3085714 90.4382716,96.3085714 C90.4382716,96.3085714 81.0617284,85.1028571 66.5432099,87.5257143 C52.0246914,89.9485714 48.6975309,92.6742857 48.6975309,92.6742857 L45.6728395,93.8857143 L38.4135802,99.64 L41.1358025,106 C41.1358025,106 21.9820899,95.0606916 16.3333333,91.16 C10.6845768,87.2593084 6.04938272,81.7714286 6.04938272,81.7714286 C6.04938272,81.7714286 -1.10317945e-13,74.2 -1.27897692e-13,71.1714286 C-1.45091072e-13,68.1428571 -1.28577704e-13,63.2971429 4.2345679,59.6628571 C8.4691358,56.0285714 13.9135802,52.0914286 13.9135802,52.0914286 L27.5246914,48.4571429 L20.2654321,43.3085714 L48.0925926,43.6114286 L53.537037,40.28 L56.8641975,35.4342857 L57.7716049,29.3771429 L55.3518519,26.6514286 L51.4197531,26.6514286 L53.2345679,35.7371429 L45.6728395,30.8914286 L41.7407407,36.3428571" id="Path" fill="#000000"></path>
            <polygon id="Path-2" fill="#FFFFFF" points="31.7592593 29.9828571 39.3209877 25.44 39.9259259 26.6514286"></polygon>
        </g>
        <path d="M132.6,89.2 C129.559985,89.2 126.740013,88.700005 124.14,87.7 C121.539987,86.699995 119.300009,85.3200088 117.42,83.56 C115.539991,81.7999912 114.060005,79.720012 112.98,77.32 C111.899995,74.919988 111.36,72.320014 111.36,69.52 C111.36,66.5599852 111.999994,63.880012 113.28,61.48 C114.560006,59.079988 116.379988,57.0000088 118.74,55.24 C121.100012,53.4799912 123.899984,52.1200048 127.14,51.16 C130.380016,50.1999952 133.95998,49.72 137.88,49.72 C140.840015,49.72 143.759986,49.9799974 146.64,50.5 C149.520014,51.0200026 152.119988,51.7199956 154.44,52.6 L154.44,48.28 C154.44,43.6399768 153.120013,40.020013 150.48,37.42 C147.839987,34.819987 144.040025,33.52 139.08,33.52 C135.719983,33.52 132.420016,34.1399938 129.18,35.38 C125.939984,36.6200062 122.600017,38.3999884 119.16,40.72 L115.08,32.32 C123.16004,26.8799728 131.559956,24.16 140.28,24.16 C148.920043,24.16 155.639976,26.359978 160.44,30.76 C165.240024,35.160022 167.64,41.4799588 167.64,49.72 L167.64,72.4 C167.64,75.200014 168.799988,76.6399996 171.12,76.72 L171.12,88 C169.839994,88.2400012 168.740005,88.3999996 167.82,88.48 C166.899995,88.5600004 166.000004,88.6 165.12,88.6 C162.559987,88.6 160.580007,87.9600064 159.18,86.68 C157.779993,85.3999936 156.920002,83.76001 156.6,81.76 L156.24,77.8 C153.439986,81.4800184 149.980021,84.2999902 145.86,86.26 C141.739979,88.2200098 137.320024,89.2 132.6,89.2 L132.6,89.2 Z M136.2,79.48 C139.400016,79.48 142.419986,78.9000058 145.26,77.74 C148.100014,76.5799942 150.319992,74.9600104 151.92,72.88 C153.600008,71.4399928 154.44,69.920008 154.44,68.32 L154.44,60.04 C152.199989,59.1599956 149.820013,58.4800024 147.3,58 C144.779987,57.5199976 142.320012,57.28 139.92,57.28 C135.199976,57.28 131.340015,58.2999898 128.34,60.34 C125.339985,62.3800102 123.84,65.0799832 123.84,68.44 C123.84,71.5600156 124.999988,74.1799894 127.32,76.3 C129.640012,78.4200106 132.599982,79.48 136.2,79.48 L136.2,79.48 Z M201.24,88 L177.24,25.24 L190.8,25.24 L208.8,76.84 L226.92,25.24 L239.4,25.24 L215.4,88 L201.24,88 Z M282.6,89.2 C277.799976,89.2 273.460019,88.0600114 269.58,85.78 C265.699981,83.4999886 262.640011,80.4400192 260.4,76.6 L260.4,88 L248.76,88 L248.76,0.4 L261.96,0.4 L261.96,37.12 C264.440012,33.11998 267.539981,29.9600116 271.26,27.64 C274.980019,25.3199884 279.359975,24.16 284.4,24.16 C288.560021,24.16 292.359983,25.059991 295.8,26.86 C299.240017,28.660009 302.179988,31.059985 304.62,34.06 C307.060012,37.060015 308.939993,40.5399802 310.26,44.5 C311.580007,48.4600198 312.24,52.5999784 312.24,56.92 C312.24,61.4000224 311.480008,65.5999804 309.96,69.52 C308.439992,73.4400196 306.360013,76.8599854 303.72,79.78 C301.079987,82.7000146 297.940018,84.9999916 294.3,86.68 C290.659982,88.3600084 286.760021,89.2 282.6,89.2 L282.6,89.2 Z M279.12,77.92 C282.000014,77.92 284.639988,77.3400058 287.04,76.18 C289.440012,75.0199942 291.499991,73.4800096 293.22,71.56 C294.940009,69.6399904 296.279995,67.4200126 297.24,64.9 C298.200005,62.3799874 298.68,59.720014 298.68,56.92 C298.68,54.119986 298.220005,51.420013 297.3,48.82 C296.379995,46.219987 295.100008,43.9400098 293.46,41.98 C291.819992,40.0199902 289.860011,38.440006 287.58,37.24 C285.299989,36.039994 282.800014,35.44 280.08,35.44 C275.99998,35.44 272.380016,36.7599868 269.22,39.4 C266.059984,42.0400132 263.640008,45.2399812 261.96,49 L261.96,65.56 C262.440002,67.4000092 263.279994,69.0599926 264.48,70.54 C265.680006,72.0200074 267.079992,73.3199944 268.68,74.44 C270.280008,75.5600056 271.999991,76.419997 273.84,77.02 C275.680009,77.620003 277.439992,77.92 279.12,77.92 L279.12,77.92 Z M360.84,30.16 L319.56,30.16 L319.56,18.04 L381.72,18.04 L339.12,103.24 L324.12,103.24 L360.84,30.16 Z" id="avb7" fill="#000000"></path>
    </g>
</svg>
