<?xml version="1.0" standalone="no"?>
<!DOCTYPE svg PUBLIC "-//W3C//DTD SVG 20010904//EN"
 "http://www.w3.org/TR/2001/REC-SVG-20010904/DTD/svg10.dtd">
<svg version="1.0" xmlns="http://www.w3.org/2000/svg"
 width="16.000000pt" height="16.000000pt" viewBox="0 0 16.000000 16.000000"
 preserveAspectRatio="xMidYMid meet">
<metadata>
Created by potrace 1.11, written by Peter Selinger 2001-2013
</metadata>
<g transform="translate(0.000000,16.000000) scale(0.001333,-0.001333)"
fill="#000000" stroke="none">
<path d="M5795 8954 c-227 -22 -343 -41 -520 -85 -1044 -258 -1886 -1100
-2144 -2144 -67 -272 -85 -427 -85 -725 0 -298 18 -453 85 -725 47 -190 138
-436 221 -600 l26 -50 11 45 c56 215 137 304 591 646 l145 109 373 99 c205 55
369 102 365 106 -4 4 -93 67 -196 140 -103 73 -187 133 -185 134 2 2 344 -1
760 -6 l758 -9 149 91 150 92 86 126 c48 69 91 137 95 151 5 14 18 92 30 174
l21 147 -66 75 -67 75 -108 0 -107 0 48 -242 c27 -133 47 -243 45 -246 -2 -2
-93 53 -201 122 -108 69 -200 126 -204 126 -4 0 -54 -65 -112 -144 l-103 -144
-86 -6 c-47 -3 -289 -11 -539 -18 l-455 -12 -173 -124 c-106 -75 -195 -131
-227 -142 -50 -17 -57 -17 -134 -1 l-82 16 -40 65 c-32 51 -40 75 -40 112 0
28 -5 48 -12 50 -18 6 29 67 124 159 66 65 90 82 161 110 241 96 307 135 677
406 l355 259 -3 55 c-2 30 -11 70 -20 89 l-17 35 -124 3 c-130 3 -132 2 -275
-52 l-68 -27 27 33 c102 123 127 140 305 216 l115 48 222 -8 222 -9 102 71
c56 39 253 159 438 265 323 186 346 198 584 290 137 53 250 95 252 93 2 -2
-151 -181 -341 -397 -190 -216 -343 -395 -341 -398 3 -2 160 14 348 36 315 38
407 44 1098 76 415 19 756 37 759 39 7 8 -107 164 -209 286 -470 562 -1125
919 -1879 1026 -100 14 -501 26 -585 18z"/>
<path d="M8469 7499 c-107 -45 -212 -72 -573 -145 -186 -37 -335 -69 -330 -70
5 -1 176 -7 379 -13 204 -6 417 -14 475 -18 l105 -6 -343 -88 c-189 -48 -346
-89 -348 -92 -3 -2 142 -211 322 -463 180 -253 334 -470 342 -484 16 -24 16
-25 -3 -9 -268 217 -436 335 -643 454 -123 70 -225 126 -227 124 -2 -3 17 -31
42 -64 98 -132 243 -355 290 -450 45 -89 55 -122 92 -302 l42 -202 -8 -198 -8
-198 -165 -264 -165 -264 -6 119 c-4 66 -7 166 -8 224 -1 105 -1 106 -101 404
-54 164 -101 301 -103 303 -3 2 -67 -73 -143 -167 l-138 -171 -205 -153 c-191
-142 -217 -158 -356 -219 -105 -46 -232 -89 -425 -146 l-275 -80 -258 -16
c-141 -9 -262 -15 -268 -13 -7 2 40 42 104 88 64 46 115 85 114 86 -6 6 -705
-159 -711 -168 -1 -1 -46 -54 -99 -116 l-97 -113 0 -147 1 -147 43 -68 c27
-42 62 -82 91 -103 27 -19 44 -34 39 -34 -5 0 -67 16 -137 35 -117 31 -133 38
-180 80 -29 25 -88 77 -131 116 -43 38 -81 68 -83 66 -3 -3 24 -149 42 -224 3
-12 56 -65 118 -118 95 -82 131 -106 236 -156 l124 -59 311 5 c171 3 307 3
301 1 -5 -3 -127 -35 -270 -71 -143 -37 -277 -71 -297 -76 -34 -9 -38 -13 -38
-42 0 -25 9 -42 35 -67 l35 -34 397 28 c543 38 566 40 628 71 64 31 88 65 87
121 -1 73 -74 184 -222 338 -52 54 -86 94 -75 89 11 -6 152 -68 313 -138 l293
-127 145 23 c79 13 144 26 144 29 0 3 -110 91 -245 195 -135 105 -242 191
-237 193 24 8 786 -159 957 -209 153 -46 147 -41 371 -298 113 -130 209 -237
214 -239 15 -5 241 191 345 299 367 383 621 839 744 1334 67 272 85 427 85
725 0 298 -18 453 -85 725 -62 251 -172 525 -295 736 l-39 66 -66 -28z"/>
<path d="M7025 3484 c-378 -58 -756 -160 -940 -254 -49 -25 -117 -57 -150 -70
-33 -13 -84 -41 -114 -64 l-54 -41 44 -8 c63 -12 444 0 569 17 401 57 767 180
1084 364 66 38 68 40 40 46 -145 29 -329 33 -479 10z"/>
</g>
</svg>
